<?xml version="1.0" encoding="UTF-8" standalone="no"?><!DOCTYPE svg PUBLIC "-//W3C//DTD SVG 1.1//EN" "http://www.w3.org/Graphics/SVG/1.1/DTD/svg11.dtd"><svg width="100%" height="100%" viewBox="0 0 435 435" version="1.1" xmlns="http://www.w3.org/2000/svg" xmlns:xlink="http://www.w3.org/1999/xlink" xml:space="preserve" xmlns:serif="http://www.serif.com/" style="fill-rule:evenodd;clip-rule:evenodd;stroke-linejoin:round;stroke-miterlimit:1.41421;"><rect x="0" y="0" width="434.048" height="434.048" style="fill:#fc2d34;"/><path d="M42.142,48.94l38.946,340.292l110.772,0l5.262,-3.469l7.534,-32.841l-66.759,-69.272c-1.599,-1.654 -2.514,-3.96 -2.514,-6.285l0.352,-29.935c-14.202,-3.802 -24.762,-16.823 -24.762,-32.174c0,-18.301 14.958,-33.367 33.264,-33.367c18.301,0 33.349,15.066 33.349,33.367c0,15.031 -10.119,27.826 -23.901,31.926l-0.334,26.628l55.562,57.693l0.09,0.266l32.647,38.508l4.172,17.95l3.519,1.005l105.087,0l38.823,-340.292l-92.52,0c-6.583,10.597 -16.333,47.222 -20.433,65.772c-2.518,-22.636 -5.158,-45.285 -14.255,-65.772l-97.959,0c0,0 -11.07,24.695 -19.202,63.816c-2.568,-19.973 -8.078,-47.533 -14.098,-63.816l-92.66,0l0.018,0Zm178.531,47.713c18.301,0 33.349,15.067 33.349,33.368c0,15.031 -10.173,27.88 -23.937,31.962l0,110.827l-17.968,18.954l0,-129.569c-14.184,-3.803 -24.763,-16.824 -24.763,-32.174c0,-18.301 15.013,-33.368 33.319,-33.368Zm0,16.878c-9.192,0 -16.441,7.303 -16.441,16.49c0,9.173 7.249,16.441 16.441,16.441c9.168,0 16.472,-7.268 16.472,-16.441c0,-9.187 -7.304,-16.49 -16.472,-16.49Zm75.552,21.91c18.306,0 33.319,15.017 33.319,33.319c0,15.048 -10.156,27.826 -23.938,31.926l0.387,30.871c0,2.321 -0.914,4.663 -2.518,6.335l-73.39,76.17l0,6.105l6.073,26.384l-24.127,-25.465l0.086,-0.338l0,-9.204c-0.036,-0.298 -0.086,-0.577 -0.086,-0.861c0,-0.388 0.05,-0.793 0.086,-1.18l0,-0.176l17.95,-21.154l0,-0.054l57.904,-60.031l-0.333,-27.155c-14.188,-3.82 -24.726,-16.846 -24.726,-32.173c0,-18.302 15.012,-33.319 33.313,-33.319Zm0,16.882c-9.168,0 -16.436,7.25 -16.436,16.437c0,9.168 7.268,16.436 16.436,16.436c9.187,0 16.441,-7.268 16.441,-16.436c0,-9.187 -7.254,-16.437 -16.441,-16.437Zm-151.988,46.497c-9.169,0 -16.387,7.25 -16.387,16.436c0,9.169 7.218,16.441 16.387,16.441c9.186,0 16.49,-7.272 16.49,-16.441c0,-9.186 -7.304,-16.436 -16.49,-16.436Z" style="fill:#fff;fill-rule:nonzero;"/></svg>